<svg xmlns="http://www.w3.org/2000/svg" viewBox="0 0 240 240" fill="none">
  <defs>
    <linearGradient id="bg" x1="40" x2="200" y1="30" y2="200" gradientUnits="userSpaceOnUse">
      <stop stop-color="#7dd3fc" stop-opacity="0.9"/>
      <stop offset="1" stop-color="#a78bfa" stop-opacity="0.9"/>
    </linearGradient>
  </defs>
  <rect x="16" y="16" width="208" height="208" rx="40" fill="url(#bg)" opacity="0.3"/>
  <rect x="44" y="70" width="152" height="120" rx="36" fill="#fff"/>
  <rect x="60" y="52" width="120" height="110" rx="32" fill="#f8fafc" stroke="#cbd5e1" stroke-width="4"/>
  <circle cx="120" cy="50" r="16" fill="#38bdf8" stroke="#0ea5e9" stroke-width="4"/>
  <rect x="78" y="94" width="84" height="50" rx="16" fill="#e0f2fe" stroke="#0ea5e9" stroke-width="4"/>
  <circle cx="100" cy="112" r="10" fill="#0ea5e9"/>
  <circle cx="140" cy="112" r="10" fill="#0ea5e9"/>
  <rect x="88" y="132" width="64" height="10" rx="5" fill="#bae6fd"/>
  <rect x="74" y="170" width="36" height="28" rx="10" fill="#e0f2fe" stroke="#a5b4fc" stroke-width="3"/>
  <rect x="130" y="170" width="36" height="28" rx="10" fill="#e0f2fe" stroke="#a5b4fc" stroke-width="3"/>
  <circle cx="90" cy="183" r="4" fill="#0ea5e9"/>
  <circle cx="150" cy="183" r="4" fill="#0ea5e9"/>
  <rect x="110" y="60" width="20" height="14" rx="7" fill="#22c55e" opacity="0.85"/>
  <path d="M62 96c-10 4-18 12-18 22 0 10 7 16 16 16" stroke="#38bdf8" stroke-width="5" stroke-linecap="round"/>
  <path d="M178 96c10 4 18 12 18 22 0 10-7 16-16 16" stroke="#38bdf8" stroke-width="5" stroke-linecap="round"/>
  <path d="M120 34v-8" stroke="#0ea5e9" stroke-width="5" stroke-linecap="round"/>
  <circle cx="120" cy="24" r="4" fill="#0ea5e9"/>
</svg>
